<mxfile host="app.diagrams.net" modified="2022-12-13T13:33:54.566Z" agent="5.0 (Windows NT 10.0; Win64; x64) AppleWebKit/537.36 (KHTML, like Gecko) Chrome/108.0.0.0 Safari/537.36" version="20.6.2" etag="uwgKTNzFmu9K_D2SXfe7" type="github">
  <diagram id="XkYsIAO0hcN3_vJOo2f3" name="Page-1">
    <mxGraphModel dx="1022" dy="460" grid="1" gridSize="10" guides="1" tooltips="1" connect="1" arrows="1" fold="1" page="1" pageScale="1" pageWidth="850" pageHeight="1100" math="0" shadow="0">
      <root>
        <mxCell id="0" />
        <mxCell id="1" parent="0" />
        <mxCell id="lJ80UI3CUfetuiSFEIGP-16" style="edgeStyle=orthogonalEdgeStyle;rounded=0;orthogonalLoop=1;jettySize=auto;html=1;exitX=0.25;exitY=1;exitDx=0;exitDy=0;" edge="1" parent="1" source="lJ80UI3CUfetuiSFEIGP-1" target="lJ80UI3CUfetuiSFEIGP-4">
          <mxGeometry relative="1" as="geometry" />
        </mxCell>
        <mxCell id="lJ80UI3CUfetuiSFEIGP-17" style="edgeStyle=orthogonalEdgeStyle;rounded=0;orthogonalLoop=1;jettySize=auto;html=1;exitX=0.75;exitY=1;exitDx=0;exitDy=0;entryX=0.5;entryY=0;entryDx=0;entryDy=0;" edge="1" parent="1" source="lJ80UI3CUfetuiSFEIGP-1" target="lJ80UI3CUfetuiSFEIGP-5">
          <mxGeometry relative="1" as="geometry" />
        </mxCell>
        <mxCell id="lJ80UI3CUfetuiSFEIGP-18" style="edgeStyle=orthogonalEdgeStyle;rounded=0;orthogonalLoop=1;jettySize=auto;html=1;exitX=0;exitY=0.75;exitDx=0;exitDy=0;entryX=0.417;entryY=-0.022;entryDx=0;entryDy=0;entryPerimeter=0;" edge="1" parent="1" source="lJ80UI3CUfetuiSFEIGP-1" target="lJ80UI3CUfetuiSFEIGP-3">
          <mxGeometry relative="1" as="geometry" />
        </mxCell>
        <mxCell id="lJ80UI3CUfetuiSFEIGP-19" style="edgeStyle=orthogonalEdgeStyle;rounded=0;orthogonalLoop=1;jettySize=auto;html=1;exitX=0;exitY=0.25;exitDx=0;exitDy=0;entryX=0.394;entryY=0.011;entryDx=0;entryDy=0;entryPerimeter=0;" edge="1" parent="1" source="lJ80UI3CUfetuiSFEIGP-1" target="lJ80UI3CUfetuiSFEIGP-2">
          <mxGeometry relative="1" as="geometry" />
        </mxCell>
        <mxCell id="lJ80UI3CUfetuiSFEIGP-20" style="edgeStyle=orthogonalEdgeStyle;rounded=0;orthogonalLoop=1;jettySize=auto;html=1;exitX=1;exitY=0.25;exitDx=0;exitDy=0;entryX=0.5;entryY=0;entryDx=0;entryDy=0;" edge="1" parent="1" source="lJ80UI3CUfetuiSFEIGP-1" target="lJ80UI3CUfetuiSFEIGP-7">
          <mxGeometry relative="1" as="geometry" />
        </mxCell>
        <mxCell id="lJ80UI3CUfetuiSFEIGP-21" style="edgeStyle=orthogonalEdgeStyle;rounded=0;orthogonalLoop=1;jettySize=auto;html=1;exitX=1;exitY=0.75;exitDx=0;exitDy=0;entryX=0.5;entryY=0;entryDx=0;entryDy=0;" edge="1" parent="1" source="lJ80UI3CUfetuiSFEIGP-1" target="lJ80UI3CUfetuiSFEIGP-6">
          <mxGeometry relative="1" as="geometry" />
        </mxCell>
        <mxCell id="lJ80UI3CUfetuiSFEIGP-1" value="Main Site" style="whiteSpace=wrap;html=1;" vertex="1" parent="1">
          <mxGeometry x="320" y="50" width="120" height="60" as="geometry" />
        </mxCell>
        <mxCell id="lJ80UI3CUfetuiSFEIGP-2" value="Personal" style="ellipse;whiteSpace=wrap;html=1;" vertex="1" parent="1">
          <mxGeometry x="10" y="150" width="120" height="60" as="geometry" />
        </mxCell>
        <mxCell id="lJ80UI3CUfetuiSFEIGP-3" value="Bussiness" style="ellipse;whiteSpace=wrap;html=1;" vertex="1" parent="1">
          <mxGeometry x="140" y="150" width="120" height="60" as="geometry" />
        </mxCell>
        <mxCell id="lJ80UI3CUfetuiSFEIGP-4" value="Wealth Management" style="ellipse;whiteSpace=wrap;html=1;" vertex="1" parent="1">
          <mxGeometry x="270" y="150" width="120" height="60" as="geometry" />
        </mxCell>
        <mxCell id="lJ80UI3CUfetuiSFEIGP-5" value="Mortgage" style="ellipse;whiteSpace=wrap;html=1;" vertex="1" parent="1">
          <mxGeometry x="410" y="150" width="120" height="60" as="geometry" />
        </mxCell>
        <mxCell id="lJ80UI3CUfetuiSFEIGP-6" value="Ag Services" style="ellipse;whiteSpace=wrap;html=1;" vertex="1" parent="1">
          <mxGeometry x="540" y="150" width="120" height="60" as="geometry" />
        </mxCell>
        <mxCell id="lJ80UI3CUfetuiSFEIGP-13" style="edgeStyle=orthogonalEdgeStyle;rounded=0;orthogonalLoop=1;jettySize=auto;html=1;exitX=1;exitY=1;exitDx=0;exitDy=0;entryX=1;entryY=0.5;entryDx=0;entryDy=0;" edge="1" parent="1" source="lJ80UI3CUfetuiSFEIGP-7" target="lJ80UI3CUfetuiSFEIGP-11">
          <mxGeometry relative="1" as="geometry" />
        </mxCell>
        <mxCell id="lJ80UI3CUfetuiSFEIGP-15" style="edgeStyle=orthogonalEdgeStyle;rounded=0;orthogonalLoop=1;jettySize=auto;html=1;exitX=1;exitY=0.5;exitDx=0;exitDy=0;entryX=1;entryY=0.5;entryDx=0;entryDy=0;" edge="1" parent="1" source="lJ80UI3CUfetuiSFEIGP-7" target="lJ80UI3CUfetuiSFEIGP-12">
          <mxGeometry relative="1" as="geometry" />
        </mxCell>
        <mxCell id="lJ80UI3CUfetuiSFEIGP-7" value="Community" style="ellipse;whiteSpace=wrap;html=1;" vertex="1" parent="1">
          <mxGeometry x="680" y="150" width="120" height="60" as="geometry" />
        </mxCell>
        <mxCell id="lJ80UI3CUfetuiSFEIGP-11" value="Community Banking" style="whiteSpace=wrap;html=1;" vertex="1" parent="1">
          <mxGeometry x="700" y="220" width="90" height="40" as="geometry" />
        </mxCell>
        <mxCell id="lJ80UI3CUfetuiSFEIGP-12" value="Financial Pathways" style="whiteSpace=wrap;html=1;" vertex="1" parent="1">
          <mxGeometry x="700" y="270" width="90" height="40" as="geometry" />
        </mxCell>
      </root>
    </mxGraphModel>
  </diagram>
</mxfile>
